<?xml version="1.0" encoding="UTF-8"?>
<svg width="16px" height="16px" viewBox="0 0 16 16" version="1.1" xmlns="http://www.w3.org/2000/svg" xmlns:xlink="http://www.w3.org/1999/xlink">
    <!-- Generator: Sketch 55.2 (78181) - https://sketchapp.com -->
    <title>Flag - Hong Kong</title>
    <desc>Created with Sketch.</desc>
    <defs>
        <rect id="path-1" x="0" y="0" width="16" height="16" rx="2"></rect>
    </defs>
    <g id="PCSD-T2-Bid-Request-1.3" stroke="none" stroke-width="1" fill="none" fill-rule="evenodd">
        <g id="5.1.New-Bid-Request-from-portal-catalog" transform="translate(-1082.000000, -1182.000000)">
            <g id="Footer" transform="translate(0.000000, 887.000000)">
                <g id="Group" transform="translate(0.000000, 280.000000)">
                    <g id="Tools" transform="translate(1082.000000, 14.000000)">
                        <g id="Flag---Hong-Kong" transform="translate(0.000000, 1.000000)">
                            <mask id="mask-2" fill="white">
                                <use xlink:href="#path-1"></use>
                            </mask>
                            <use id="Mask" fill="#FFFFFF" xlink:href="#path-1"></use>
                            <rect id="Rectangle-2" fill="#F0371D" mask="url(#mask-2)" x="-4" y="0" width="24" height="16"></rect>
                            <path d="M9.03673888,7.256406 C8.18556701,6.72307266 7.97007221,7.6921408 7.97007221,7.256406 C7.97007221,6.3727504 8.92519808,5.656406 10.1034055,5.656406 C11.281613,5.656406 12.2367389,6.3727504 12.2367389,7.256406 C11.2246295,7.256406 11.1235241,7.78973933 10.6367389,7.78973933 C10.0395111,7.78973933 9.88791076,7.78973933 9.03673888,7.256406 Z M10.3700722,7.05333354 C10.5173481,7.05333354 10.6367389,6.9339428 10.6367389,6.78666687 C10.6367389,6.63939094 10.5173481,6.5200002 10.3700722,6.5200002 C10.2227963,6.5200002 10.1034055,6.63939094 10.1034055,6.78666687 C10.1034055,6.9339428 10.2227963,7.05333354 10.3700722,7.05333354 Z M8.43839621,9.14662069 C8.68259978,8.17229907 7.69436967,8.26680987 8.10877809,8.13216041 C8.9491845,7.85909581 9.92561864,8.5461119 10.2897048,9.66665378 C10.6537909,10.7871957 10.267657,11.9169369 9.4272506,12.1900015 C9.1144916,11.2274283 8.57601816,11.2960804 8.42559326,10.8331202 C8.24103974,10.2651229 8.19419265,10.1209423 8.43839621,9.14662069 Z M9.04355226,10.3519432 C9.08906302,10.4920109 9.23950413,10.5686645 9.37957186,10.5231537 C9.5196396,10.477643 9.59629317,10.3272019 9.5507824,10.1871341 C9.50527163,10.0470664 9.35483053,9.97041284 9.2147628,10.0159236 C9.07469506,10.0614344 8.99804149,10.2118755 9.04355226,10.3519432 Z M6.45579716,9.16167146 C7.45789514,9.09284092 7.06263013,8.18218367 7.31874862,8.53470053 C7.83814835,9.24959292 7.48649196,10.3905366 6.5333021,11.0830696 C5.58011224,11.7756026 4.38634251,11.7574767 3.86694278,11.0425843 C4.68575646,10.4476813 4.454067,9.9567773 4.8478845,9.67065214 C5.33105188,9.31961048 5.45369918,9.23050201 6.45579716,9.16167146 Z M5.49647083,10.1096742 C5.3773221,10.1962408 5.35090908,10.3630061 5.4374757,10.4821548 C5.52404232,10.6013035 5.69080756,10.6277166 5.8099563,10.5411499 C5.92910503,10.4545833 5.95551805,10.2878181 5.86895143,10.1686693 C5.78238481,10.0495206 5.61561956,10.0231076 5.49647083,10.1096742 Z M5.82882622,7.28075866 C6.20395327,8.21254066 6.94789617,7.55521273 6.69177768,7.90772959 C6.17237795,8.62262199 4.97860822,8.64074788 4.02541836,7.94821491 C3.07222849,7.25568194 2.72057211,6.11473825 3.23997184,5.39984585 C4.05878552,5.99474881 4.454067,5.62270136 4.8478845,5.90882652 C5.33105188,6.25986818 5.45369918,6.34897665 5.82882622,7.28075866 Z M4.6307739,6.66133406 C4.51162517,6.57476743 4.34485992,6.60118045 4.2582933,6.72032919 C4.17172668,6.83947792 4.1981397,7.00624316 4.31728843,7.09280979 C4.43643717,7.17937641 4.60320241,7.15296339 4.68976903,7.03381465 C4.77633565,6.91466592 4.74992263,6.74790068 4.6307739,6.66133406 Z M7.42393593,6.10323984 C6.65367921,6.74794333 7.50872622,7.25234958 7.0943178,7.11770012 C6.25391139,6.84463553 5.8677775,5.71489425 6.23186363,4.59435236 C6.59594976,3.47381048 7.5723839,2.78679439 8.41279031,3.05985899 C8.10003132,4.0224322 8.57601816,4.28339824 8.42559326,4.74635848 C8.24103974,5.3143558 8.19419265,5.45853634 7.42393593,6.10323984 Z M7.6428252,4.77241164 C7.68833597,4.63234391 7.6116824,4.48190281 7.47161467,4.43639204 C7.33154693,4.39088127 7.18110583,4.46753484 7.13559506,4.60760258 C7.0900843,4.74767032 7.16673787,4.89811142 7.3068056,4.94362218 C7.44687334,4.98913295 7.59731444,4.91247938 7.6428252,4.77241164 Z" id="Oval-145" fill="#FFFFFF" mask="url(#mask-2)"></path>
                        </g>
                    </g>
                </g>
            </g>
        </g>
    </g>
</svg>